 <svg  version="1.0" xmlns="http://www.w3.org/2000/svg"  width="512.000000pt" height="512.000000pt" viewBox="0 0 512.000000 512.000000"  preserveAspectRatio="xMidYMid meet">  <g transform="translate(0.000000,512.000000) scale(0.100000,-0.100000)" fill="#99f3f4" stroke="none"> <path d="M2046 5060 c-43 -5 -115 -16 -160 -24 -44 -9 -99 -18 -121 -22 -55 -8 -273 -78 -359 -115 -536 -228 -962 -654 -1185 -1185 -34 -79 -106 -303 -114 -349 -3 -16 -15 -88 -28 -160 -33 -187 -33 -483 0 -670 13 -71 25 -143 28 -160 8 -46 80 -270 114 -349 110 -263 268 -495 479 -706 211 -211 443 -369 706 -479 83 -35 304 -107 354 -115 19 -3 89 -15 155 -27 174 -32 498 -32 670 0 66 12 136 24 155 27 51 8 272 80 354 115 263 111 500 271 706 478 213 214 359 430 479 706 36 84 107 304 115 360 4 22 13 74 20 115 43 228 45 479 6 705 -11 66 -23 136 -26 155 -8 50 -80 271 -115 354 -110 263 -268 495 -479 706 -207 208 -426 357 -695 476 -70 31 -314 109 -365 118 -19 3 -89 15 -155 26 -137 24 -413 34 -539 20z m384 -25 c117 -10 158 -16 250 -36 52 -12 111 -24 130 -28 121 -26 376 -133 535 -223 266 -152 542 -412 713 -673 86 -131 224 -400 235 -460 2 -11 9 -32 15 -46 9 -24 30 -92 33 -111 0 -4 7 -31 15 -60 45 -166 64 -317 67 -533 2 -136 -26 -383 -53 -470 -5 -16 -11 -41 -14 -55 -11 -55 -16 -74 -52 -177 -57 -169 -160 -373 -258 -514 -144 -206 -299 -370 -471 -499 -33 -25 -64 -49 -70 -53 -15 -12 -115 -77 -160 -104 -56 -33 -263 -133 -276 -133 -6 0 -23 -6 -37 -14 -40 -22 -292 -97 -367 -110 -294 -50 -598 -50 -820 0 -33 7 -71 15 -85 18 -14 3 -43 10 -65 14 -22 5 -74 21 -115 36 -41 15 -85 29 -96 32 -66 13 -286 125 -430 220 -144 94 -369 288 -357 307 3 6 2 7 -4 4 -10 -7 -131 129 -199 223 -249 345 -406 789 -408 1156 -1 78 -5 140 -10 137 -4 -3 -6 7 -3 23 4 16 9 79 12 139 14 237 87 514 201 753 63 134 188 342 205 342 5 0 9 5 9 11 0 7 26 44 57 83 64 79 263 284 263 270 0 -4 6 1 14 11 14 21 214 172 221 168 3 -1 15 8 29 20 30 28 236 135 336 175 102 41 113 45 125 46 6 1 36 9 67 19 32 10 60 18 63 18 3 0 24 7 47 15 63 22 257 53 378 60 58 4 106 8 108 9 4 3 146 -3 222 -10z"/> <path d="M3077 4060 c-63 -20 -88 -43 -82 -75 3 -18 15 -65 69 -268 9 -32 16 -60 16 -62 0 -2 -19 -10 -42 -16 -56 -17 -123 -62 -145 -99 -20 -35 -29 -37 -37 -12 -8 25 -56 76 -86 93 -31 16 -42 19 -104 26 -27 3 -63 14 -80 24 -56 34 -174 23 -221 -21 -14 -13 -25 -16 -35 -10 -15 10 -16 11 -18 108 -3 88 -20 103 -114 101 -96 -3 -108 -15 -108 -112 0 -47 -5 -80 -14 -93 -14 -19 -15 -19 -38 2 -38 36 -68 46 -128 46 -40 0 -70 -7 -101 -23 -24 -12 -58 -22 -75 -20 -34 2 -118 -31 -148 -57 -59 -54 -75 -154 -41 -252 29 -85 62 -195 73 -246 l9 -42 -68 -4 c-62 -3 -73 -7 -101 -36 -28 -27 -33 -40 -36 -94 -4 -62 -3 -64 36 -109 37 -42 48 -71 44 -121 -2 -16 -13 -18 -91 -18 -104 0 -101 -4 -101 121 0 113 8 109 -248 109 -199 0 -213 -1 -232 -20 -11 -11 -20 -26 -21 -32 0 -7 -1 -238 -2 -513 l-2 -500 22 -22 c22 -22 27 -23 235 -23 245 1 252 3 254 73 0 23 1 57 2 76 l2 34 70 -6 c39 -3 76 -9 83 -14 6 -4 20 -9 30 -10 27 -4 69 -28 98 -55 176 -163 377 -222 759 -223 113 0 252 3 310 7 103 7 341 34 370 43 8 2 26 6 40 9 36 6 109 36 151 62 69 43 87 132 39 197 l-21 28 72 77 c40 42 77 79 81 80 4 2 8 8 8 12 0 5 18 36 39 70 73 113 138 298 159 456 7 51 14 66 42 91 32 28 35 36 38 102 7 115 -32 151 -160 150 -40 0 -79 0 -86 0 -10 1 -6 14 13 46 44 76 75 171 75 230 0 64 -32 143 -78 196 l-31 36 129 129 c93 93 130 137 130 153 0 30 -98 131 -127 131 -11 0 -39 -18 -63 -40 -24 -22 -45 -38 -47 -36 -2 2 1 15 7 30 24 65 0 96 -90 119 -71 18 -92 8 -110 -51 -19 -57 -28 -59 -35 -8 -8 51 -38 96 -63 95 -9 0 -43 -8 -75 -19z m124 -119 c23 -95 39 -128 39 -79 0 34 31 141 46 157 10 12 22 11 79 -4 36 -10 68 -22 71 -27 4 -6 -24 -123 -44 -178 -3 -8 31 20 76 63 68 66 84 77 100 68 25 -14 92 -88 92 -103 0 -7 -62 -74 -138 -150 l-137 -137 37 -36 c61 -57 83 -108 82 -195 0 -67 -3 -83 -38 -149 -21 -41 -49 -92 -62 -113 l-24 -38 117 0 c77 -1 124 -5 134 -13 27 -21 39 -54 39 -107 0 -41 -5 -56 -25 -75 -13 -14 -30 -25 -38 -25 -10 0 -16 -20 -21 -75 -21 -235 -136 -477 -306 -648 -79 -78 -79 -78 -54 -89 30 -14 54 -56 54 -94 0 -38 -63 -96 -133 -123 -132 -49 -433 -81 -762 -81 -381 0 -577 50 -741 192 -88 75 -148 100 -261 106 l-93 5 0 -80 c0 -48 -5 -84 -12 -91 -15 -15 -400 -17 -429 -2 -18 10 -19 27 -19 525 0 503 0 515 20 525 25 13 397 12 422 -1 16 -8 18 -24 18 -114 l0 -105 126 0 c115 0 125 1 120 18 -3 9 -6 41 -7 71 -2 38 -7 55 -18 59 -45 15 -61 44 -61 109 0 55 4 68 25 88 22 23 32 25 109 25 l85 0 -14 43 c-63 196 -105 349 -105 385 0 49 11 74 49 115 38 42 73 57 131 57 36 0 59 6 79 21 58 43 159 35 221 -18 29 -24 30 -24 54 -6 23 16 25 26 28 108 l3 90 85 0 85 0 3 -90 c3 -82 5 -92 28 -108 24 -18 25 -18 54 6 62 53 163 61 221 18 20 -15 43 -21 79 -21 57 0 81 -10 123 -49 39 -36 57 -73 57 -119 0 -32 -88 -347 -115 -414 -6 -16 0 -18 53 -18 l60 0 5 193 c3 107 10 211 17 234 24 82 115 162 203 178 20 4 37 9 37 10 0 5 -77 290 -89 331 -5 17 -6 36 -2 42 11 18 124 50 142 41 10 -5 25 -45 40 -108z m-381 -811 c0 -79 0 -80 -25 -80 -14 0 -25 3 -25 8 0 10 44 152 47 152 2 0 3 -36 3 -80z"/> <path d="M3102 3979 c-13 -5 -20 -14 -17 -20 4 -6 26 -81 50 -167 26 -96 48 -157 56 -160 8 -2 43 -12 78 -24 l64 -20 125 125 c111 111 124 128 112 142 -12 14 -25 5 -120 -90 -108 -108 -141 -126 -148 -80 -1 11 13 74 31 140 33 117 33 134 2 135 -6 0 -23 -51 -39 -112 -39 -154 -42 -160 -68 -156 -23 3 -34 33 -90 244 -12 48 -15 51 -36 43z m193 -325 c33 -33 28 -38 -18 -19 -20 8 -46 15 -57 15 -11 0 -20 5 -20 10 0 6 10 8 24 4 13 -3 27 -1 30 5 10 15 12 14 41 -15z"/> <path d="M2170 3710 c0 -49 1 -50 30 -50 29 0 30 1 30 50 0 49 -1 50 -30 50 -29 0 -30 -1 -30 -50z"/> <path d="M1857 3595 c-42 -22 -66 -56 -67 -95 0 -19 30 -135 66 -257 l67 -223 55 0 54 0 -7 263 c-8 288 -8 286 -72 313 -41 18 -61 17 -96 -1z m115 -38 c21 -24 26 -85 32 -442 l1 -60 -31 -3 c-30 -3 -32 0 -52 55 -31 88 -102 333 -109 375 -5 32 -1 41 25 68 40 39 102 43 134 7z"/> <path d="M2450 3599 c-14 -6 -35 -19 -46 -30 -21 -19 -22 -33 -29 -267 -3 -136 -9 -255 -11 -264 -5 -16 2 -18 53 -18 l59 0 67 223 c37 122 67 235 67 250 0 40 -28 84 -66 102 -36 17 -58 18 -94 4z m112 -49 c18 -22 25 -40 22 -63 -1 -18 -3 -32 -4 -32 -1 0 -3 -9 -5 -20 -1 -11 -22 -81 -45 -155 -23 -74 -48 -156 -56 -182 -14 -45 -17 -48 -48 -48 l-33 0 4 93 c2 50 5 161 6 246 3 147 4 155 26 172 15 12 39 19 66 19 35 0 46 -5 67 -30z"/> <path d="M2139 3577 c-58 -39 -60 -49 -52 -316 l6 -241 103 0 102 0 6 73 c3 39 8 147 11 240 6 188 0 212 -58 247 -42 26 -76 25 -118 -3z m126 -32 c14 -13 25 -32 26 -42 4 -68 -11 -434 -18 -445 -4 -7 -152 -12 -153 -5 -1 1 -3 106 -7 233 l-6 231 27 26 c36 36 96 37 131 2z"/> <path d="M3074 3560 c-59 -14 -102 -48 -130 -105 -25 -52 -26 -65 -32 -245 l-5 -190 204 2 204 3 62 115 c65 121 80 173 63 229 -38 133 -218 227 -366 191z m181 -40 c8 -7 15 -9 15 -6 0 12 63 -35 101 -75 62 -64 62 -147 3 -255 -80 -146 -57 -128 -170 -134 -54 -3 -137 -3 -183 0 l-84 5 1 55 c0 30 1 101 1 157 0 56 5 121 11 143 14 50 55 99 101 116 41 16 183 11 204 -6z"/> <path d="M1669 3545 c-27 -15 -59 -69 -59 -100 0 -10 21 -85 46 -169 25 -83 53 -175 62 -203 l15 -53 64 0 c58 0 64 2 58 18 -10 25 -58 179 -101 321 -32 108 -36 130 -27 163 9 35 9 38 -11 38 -12 -1 -33 -7 -47 -15z m31 -54 c0 -16 9 -59 20 -95 12 -36 22 -79 23 -95 1 -16 4 -27 6 -25 4 4 71 -202 71 -218 0 -5 -16 -8 -35 -8 l-34 0 -31 98 c-81 250 -92 318 -60 357 21 25 40 18 40 -14z"/> <path d="M2671 3525 c8 -28 5 -54 -16 -128 -28 -101 -99 -332 -110 -359 -6 -16 0 -18 57 -18 l65 0 61 205 c34 112 62 214 62 226 0 48 -61 109 -108 109 -18 0 -19 -3 -11 -35z m73 -27 c9 -12 16 -38 16 -57 0 -34 -3 -47 -41 -161 -9 -30 -29 -94 -44 -142 l-26 -88 -36 0 c-41 0 -41 -10 6 145 69 227 81 270 81 297 0 34 22 37 44 6z"/> <path d="M1514 2946 c-3 -8 -4 -29 -2 -48 l3 -33 1045 0 1045 0 3 24 c2 12 1 34 -2 47 l-6 24 -1041 0 c-884 0 -1040 -2 -1045 -14z m2064 -33 c2 -14 -2 -23 -10 -24 -38 -3 -2024 -5 -2029 -3 -4 2 -4 14 -2 27 l5 23 1016 -1 1017 0 3 -22z"/> <path d="M890 2345 l0 -465 170 0 170 0 0 465 0 465 -170 0 -170 0 0 -465z m315 7 c0 -282 -3 -440 -10 -444 -12 -9 -237 -11 -259 -2 -14 5 -16 56 -16 444 l0 438 143 1 142 0 0 -437z"/> <path d="M1591 2738 c4 -29 8 -61 8 -70 1 -15 12 -18 74 -18 169 -1 319 -52 444 -152 130 -103 283 -330 314 -466 l12 -52 66 -1 c138 -2 232 2 415 18 l190 17 56 46 c198 165 331 419 353 673 l6 57 -973 0 -972 0 7 -52z m1904 -8 c-2 -97 -28 -195 -86 -316 -50 -105 -144 -240 -202 -290 -73 -63 -102 -84 -116 -85 -17 -1 -37 -3 -141 -14 -36 -4 -85 -9 -110 -12 -74 -8 -334 -13 -356 -7 -15 4 -26 22 -38 62 -10 31 -33 85 -52 120 -18 34 -30 62 -26 62 4 0 2 4 -4 8 -7 4 -39 43 -71 87 -53 71 -120 140 -194 200 -13 11 -56 36 -96 56 -40 20 -69 40 -65 44 4 5 2 5 -5 1 -7 -4 -36 -1 -66 7 -29 8 -93 15 -142 16 -49 1 -92 4 -96 6 -3 3 -9 18 -12 35 -13 64 -86 59 941 57 l937 -2 0 -35z"/> <path d="M1290 2319 l0 -267 103 -4 c89 -3 110 -7 167 -35 36 -17 92 -54 125 -82 165 -142 373 -189 795 -178 256 7 371 17 525 48 193 38 274 108 164 140 -31 10 -78 8 -231 -7 -106 -10 -264 -19 -351 -19 -141 0 -158 -2 -163 -18 -3 -9 -19 -24 -36 -33 -43 -22 -97 -5 -157 50 -90 83 -138 116 -264 182 -109 56 -128 69 -125 87 5 36 33 31 139 -23 120 -60 197 -112 261 -174 53 -51 99 -78 115 -68 41 26 14 139 -66 274 -118 199 -263 324 -431 372 -42 12 -116 16 -313 18 l-257 3 0 -266z m619 203 c131 -57 237 -152 336 -302 64 -97 95 -166 102 -221 5 -42 3 -49 -11 -49 -13 0 -97 67 -126 101 -30 35 -301 179 -337 179 -27 0 -55 -34 -51 -62 2 -18 25 -35 98 -75 52 -28 102 -55 110 -59 37 -18 128 -85 155 -114 44 -48 100 -80 150 -86 39 -6 48 -3 83 24 l39 31 134 0 c74 0 178 5 231 11 54 5 153 13 220 16 107 6 125 5 137 -10 12 -14 8 -18 -30 -35 -71 -30 -83 -34 -99 -37 -8 -2 -31 -6 -50 -9 -19 -3 -41 -8 -49 -11 -8 -3 -40 -7 -70 -10 -31 -3 -74 -7 -96 -10 -145 -16 -520 -23 -635 -11 -139 15 -235 39 -326 82 -32 15 -147 97 -174 123 -17 18 -127 70 -161 78 -13 3 -55 8 -94 11 -62 5 -102 22 -75 31 6 2 8 8 5 13 -5 7 -10 405 -6 431 1 4 117 6 259 5 l257 -3 74 -32z"/> </g> </svg> 